<?xml version="1.0" encoding="UTF-8" standalone="no"?>
<svg
   xmlns:dc="http://purl.org/dc/elements/1.1/"
   xmlns:cc="http://creativecommons.org/ns#"
   xmlns:rdf="http://www.w3.org/1999/02/22-rdf-syntax-ns#"
   xmlns:svg="http://www.w3.org/2000/svg"
   xmlns="http://www.w3.org/2000/svg"
   xmlns:sodipodi="http://sodipodi.sourceforge.net/DTD/sodipodi-0.dtd"
   xmlns:inkscape="http://www.inkscape.org/namespaces/inkscape"
   version="1.1"
   id="mdi-firefox"
   width="24"
   height="24"
   viewBox="0 0 24 24"
   sodipodi:docname="firefox-white.svg"
   inkscape:version="1.0.1 (3bc2e813f5, 2020-09-07)">
  <metadata
     id="metadata97">
    <rdf:RDF>
      <cc:Work
         rdf:about="">
        <dc:format>image/svg+xml</dc:format>
        <dc:type
           rdf:resource="http://purl.org/dc/dcmitype/StillImage" />
        <dc:title></dc:title>
      </cc:Work>
    </rdf:RDF>
  </metadata>
  <defs
     id="defs95" />
  <sodipodi:namedview
     pagecolor="#ffffff"
     bordercolor="#666666"
     borderopacity="1"
     objecttolerance="10"
     gridtolerance="10"
     guidetolerance="10"
     inkscape:pageopacity="0"
     inkscape:pageshadow="2"
     inkscape:window-width="1882"
     inkscape:window-height="1042"
     id="namedview93"
     showgrid="false"
     inkscape:zoom="32"
     inkscape:cx="19.609786"
     inkscape:cy="11.333835"
     inkscape:window-x="38"
     inkscape:window-y="181"
     inkscape:window-maximized="0"
     inkscape:current-layer="mdi-firefox" />
  <path
     d="M9.27 7.94C9.27 7.94 9.27 7.94 9.27 7.94M6.85 6.74C6.86 6.74 6.86 6.74 6.85 6.74M21.28 8.6C20.85 7.55 19.96 6.42 19.27 6.06C19.83 7.17 20.16 8.28 20.29 9.1L20.29 9.12C19.16 6.3 17.24 5.16 15.67 2.68C15.59 2.56 15.5 2.43 15.43 2.3C15.39 2.23 15.36 2.16 15.32 2.09C15.26 1.96 15.2 1.83 15.17 1.69C15.17 1.68 15.16 1.67 15.15 1.67H15.13L15.12 1.67L15.12 1.67L15.12 1.67C12.9 2.97 11.97 5.26 11.74 6.71C11.05 6.75 10.37 6.92 9.75 7.22C9.63 7.27 9.58 7.41 9.62 7.53C9.67 7.67 9.83 7.74 9.96 7.68C10.5 7.42 11.1 7.27 11.7 7.23L11.75 7.23C11.83 7.22 11.92 7.22 12 7.22C12.5 7.21 12.97 7.28 13.44 7.42L13.5 7.44C13.6 7.46 13.67 7.5 13.75 7.5C13.8 7.54 13.86 7.56 13.91 7.58L14.05 7.64C14.12 7.67 14.19 7.7 14.25 7.73C14.28 7.75 14.31 7.76 14.34 7.78C14.41 7.82 14.5 7.85 14.54 7.89C14.58 7.91 14.62 7.94 14.66 7.96C15.39 8.41 16 9.03 16.41 9.77C15.88 9.4 14.92 9.03 14 9.19C17.6 11 16.63 17.19 11.64 16.95C11.2 16.94 10.76 16.85 10.34 16.7C10.24 16.67 10.14 16.63 10.05 16.58C10 16.56 9.93 16.53 9.88 16.5C8.65 15.87 7.64 14.68 7.5 13.23C7.5 13.23 8 11.5 10.83 11.5C11.14 11.5 12 10.64 12.03 10.4C12.03 10.31 10.29 9.62 9.61 8.95C9.24 8.59 9.07 8.42 8.92 8.29C8.84 8.22 8.75 8.16 8.66 8.1C8.43 7.3 8.42 6.45 8.63 5.65C7.6 6.12 6.8 6.86 6.22 7.5H6.22C5.82 7 5.85 5.35 5.87 5C5.86 5 5.57 5.16 5.54 5.18C5.19 5.43 4.86 5.71 4.56 6C4.21 6.37 3.9 6.74 3.62 7.14C3 8.05 2.5 9.09 2.28 10.18C2.28 10.19 2.18 10.59 2.11 11.1L2.08 11.33C2.06 11.5 2.04 11.65 2 11.91L2 11.94L2 12.27L2 12.32C2 17.85 6.5 22.33 12 22.33C16.97 22.33 21.08 18.74 21.88 14C21.9 13.89 21.91 13.76 21.93 13.63C22.13 11.91 21.91 10.11 21.28 8.6Z"
     id="path90" />
  <path
     style="fill:#ffffff;stroke-width:0.03125"
     d="m 11.187911,22.282292 c -0.05156,-0.006 -0.227344,-0.02588 -0.390625,-0.04416 C 9.0470696,22.042227 7.2111564,21.266286 5.7590655,20.108749 5.0726083,19.561538 4.2161012,18.626541 3.7037495,17.865085 2.4019383,15.930336 1.7979884,13.475884 2.0960472,11.331382 2.3913877,9.2064372 3.0137433,7.792874 4.3066478,6.3104197 4.6843787,5.8773106 5.3257124,5.326085 5.7074327,5.1064469 l 0.1445212,-0.083156 0.016457,0.7255847 C 5.8857405,6.51294 5.9321721,6.8775922 6.0537077,7.2041128 6.1913639,7.5739437 6.1493036,7.582679 6.6683558,7.0764628 7.1378624,6.6185669 7.5380517,6.2965334 7.972143,6.0273015 8.271488,5.8416419 8.5479936,5.6991259 8.5686952,5.7198278 c 0.00836,0.00836 -0.00916,0.1534431 -0.038926,0.3224134 -0.072599,0.4121132 -0.073671,1.1436928 -0.00226,1.5415941 0.087563,0.4879003 0.098584,0.5145097 0.2624781,0.633725 0.081358,0.059179 0.3377666,0.2892575 0.5697978,0.5112859 0.5920381,0.5665153 0.9060109,0.776381 1.9198519,1.2832678 0.258925,0.129454 0.530286,0.27005 0.603023,0.312436 0.129622,0.07553 0.131366,0.07877 0.0878,0.163028 -0.135504,0.262037 -0.672504,0.781409 -0.954421,0.923093 -0.11458,0.05758 -0.212973,0.07418 -0.53125,0.08961 -0.4962214,0.02406 -0.8668861,0.08992 -1.2812499,0.227671 -0.7450731,0.247692 -1.3214722,0.701153 -1.625759,1.279006 -0.088088,0.167283 -0.095909,0.203758 -0.076795,0.358127 0.2091134,1.688804 1.7711412,3.237041 3.5752479,3.543683 0.4303,0.07314 1.238562,0.06738 1.703662,-0.01213 0.914656,-0.156369 1.649182,-0.535001 2.253015,-1.161383 0.429009,-0.445028 0.710228,-0.919329 0.921099,-1.553517 0.400635,-1.204896 0.248143,-2.547544 -0.411382,-3.622101 C 15.31461,10.188132 14.755504,9.6259169 14.383839,9.3944047 14.233785,9.3009357 14.110738,9.2121422 14.110401,9.1970869 c -3.4e-4,-0.015165 0.198,-0.020035 0.444701,-0.010921 0.343812,0.012702 0.509417,0.034437 0.726562,0.095354 0.3314,0.092971 0.658665,0.2286553 0.917749,0.3805 0.102585,0.060123 0.19506,0.109315 0.205499,0.109315 0.08405,0 -0.374442,-0.6373409 -0.714203,-0.9928031 C 14.866565,7.9163059 13.786452,7.3738384 12.619862,7.236255 12.246712,7.1922469 11.50521,7.2164903 11.125411,7.2851156 10.883226,7.3288759 10.275977,7.518654 9.9668599,7.6471881 9.7625555,7.7321397 9.5738661,7.5712019 9.6435171,7.3714009 9.6696983,7.2962975 9.7222971,7.2572684 9.9163067,7.1689865 10.401838,6.9480509 11.229834,6.7400853 11.623937,6.7400853 h 0.13294 l 0.03556,-0.2153 c 0.123836,-0.7498572 0.545747,-1.8054585 1.028424,-2.5730716 0.539588,-0.8581186 1.353698,-1.6789078 2.153071,-2.1707346 0.160967,-0.099037 0.198358,-0.1020275 0.198358,-0.015864 0,0.096133 0.282456,0.6314088 0.530965,1.0062198 0.504606,0.7610655 0.943177,1.3175868 1.909737,2.4233462 1.035552,1.1846882 1.39654,1.6423857 1.832243,2.323105 0.216646,0.3384766 0.643311,1.1518391 0.772323,1.4722988 0.144669,0.3593506 0.06174,-0.1685616 -0.139904,-0.890625 C 19.931673,7.5767356 19.73284,7.0275872 19.515227,6.5461209 19.427497,6.35202 19.347072,6.172959 19.336505,6.1482078 c -0.04072,-0.095385 0.378835,0.2385734 0.643724,0.5123866 0.596705,0.6168071 1.065202,1.3661309 1.388076,2.2201159 0.26035,0.6886137 0.45944,1.5334377 0.55969,2.3749997 0.06058,0.508583 0.05108,1.894974 -0.01647,2.403272 -0.307941,2.317046 -1.454556,4.490085 -3.203808,6.071785 -1.574003,1.423237 -3.530656,2.296305 -5.660427,2.525708 -0.376742,0.04058 -1.588423,0.0574 -1.859375,0.02582 z"
     id="path121" />
</svg>
